<svg width="800" height="600" xmlns="http://www.w3.org/2000/svg">
<rect width="100%" height="100%" fill="white"/>
<line x1="60" y1="540" x2="60" y2="60" stroke="black" stroke-width="2"/>
<line x1="60" y1="540" x2="740" y2="540" stroke="black" stroke-width="2"/>
<line x1="60" y1="540.0" x2="740" y2="540.0" stroke="#ddd" stroke-dasharray="4"/>
<text x="50" y="544.0" text-anchor="end" font-family="Arial" font-size="12">0.000</text>
<line x1="60" y1="444.0" x2="740" y2="444.0" stroke="#ddd" stroke-dasharray="4"/>
<text x="50" y="448.0" text-anchor="end" font-family="Arial" font-size="12">0.039</text>
<line x1="60" y1="348.0" x2="740" y2="348.0" stroke="#ddd" stroke-dasharray="4"/>
<text x="50" y="352.0" text-anchor="end" font-family="Arial" font-size="12">0.078</text>
<line x1="60" y1="252.0" x2="740" y2="252.0" stroke="#ddd" stroke-dasharray="4"/>
<text x="50" y="256.0" text-anchor="end" font-family="Arial" font-size="12">0.117</text>
<line x1="60" y1="155.99999999999994" x2="740" y2="155.99999999999994" stroke="#ddd" stroke-dasharray="4"/>
<text x="50" y="159.99999999999994" text-anchor="end" font-family="Arial" font-size="12">0.156</text>
<line x1="60" y1="60.0" x2="740" y2="60.0" stroke="#ddd" stroke-dasharray="4"/>
<text x="50" y="64.0" text-anchor="end" font-family="Arial" font-size="12">0.195</text>
<rect x="94.0" y="103.63636363636368" width="102.0" height="436.3636363636363" fill="#1f77b4"/>
<text x="145.0" y="560" text-anchor="middle" font-family="Arial" font-size="12">Bipartite</text>
<text x="145.0" y="98.63636363636368" text-anchor="middle" font-family="Arial" font-size="12">0.1770s</text>
<rect x="264.0" y="350.8555374572335" width="102.0" height="189.14446254276655" fill="#ff7f0e"/>
<text x="315.0" y="560" text-anchor="middle" font-family="Arial" font-size="12">FixedDegree</text>
<text x="315.0" y="345.8555374572335" text-anchor="middle" font-family="Arial" font-size="12">0.0767s</text>
<rect x="434.0" y="444.807198068911" width="102.0" height="95.19280193108895" fill="#2ca02c"/>
<text x="485.0" y="560" text-anchor="middle" font-family="Arial" font-size="12">Mesh</text>
<text x="485.0" y="439.807198068911" text-anchor="middle" font-family="Arial" font-size="12">0.0386s</text>
<rect x="604.0" y="121.01791528392619" width="102.0" height="418.9820847160738" fill="#d62728"/>
<text x="655.0" y="560" text-anchor="middle" font-family="Arial" font-size="12">Random</text>
<text x="655.0" y="116.01791528392619" text-anchor="middle" font-family="Arial" font-size="12">0.1699s</text>
<text x="400.0" y="30.0" text-anchor="middle" font-family="Arial" font-size="16" font-weight="bold">Average Computation Time by Graph Type</text>
</svg>